<?xml version="1.0" encoding="UTF-8"?>
<!DOCTYPE svg PUBLIC "-//W3C//DTD SVG 1.1//EN" "http://www.w3.org/Graphics/SVG/1.1/DTD/svg11.dtd">
<svg xmlns="http://www.w3.org/2000/svg" version="1.1" width="510px" height="512px" style="shape-rendering:geometricPrecision; text-rendering:geometricPrecision; image-rendering:optimizeQuality; fill-rule:evenodd; clip-rule:evenodd" xmlns:xlink="http://www.w3.org/1999/xlink">
<g><path style="opacity:0.98" fill="#fefffe" d="M 237.5,-0.5 C 249.167,-0.5 260.833,-0.5 272.5,-0.5C 372.112,9.86722 443.945,59.8672 488,149.5C 499.548,175.759 506.714,203.092 509.5,231.5C 509.5,247.167 509.5,262.833 509.5,278.5C 497.85,375.294 448.517,445.46 361.5,489C 332.696,501.788 302.696,509.288 271.5,511.5C 260.167,511.5 248.833,511.5 237.5,511.5C 138.488,501.434 66.655,452.101 22,363.5C 9.67522,336.373 2.17522,308.039 -0.5,278.5C -0.5,262.833 -0.5,247.167 -0.5,231.5C 11.5839,135.264 60.9172,65.4311 147.5,22C 176.361,9.45149 206.361,1.95149 237.5,-0.5 Z M 238.5,58.5 C 319.04,56.0122 380.874,88.3455 424,155.5C 460.661,222.127 460.661,288.793 424,355.5C 381.144,422.518 319.644,454.685 239.5,452C 161.458,442.75 105.958,402.584 73,331.5C 44.5615,254.122 56.8948,184.122 110,121.5C 145.246,85.1273 188.079,64.1273 238.5,58.5 Z"/></g>
<g><path style="opacity:0.972" fill="#fefffe" d="M 237.5,110.5 C 277.677,105.36 309.843,118.693 334,150.5C 351.148,178.454 351.815,206.787 336,235.5C 331.561,240.942 326.728,246.109 321.5,251C 312.772,257.392 303.772,263.392 294.5,269C 287.384,274.45 283.217,281.617 282,290.5C 281.5,304.496 281.333,318.496 281.5,332.5C 264.833,332.5 248.167,332.5 231.5,332.5C 231.333,311.831 231.5,291.164 232,270.5C 232.462,256.741 238.295,245.908 249.5,238C 263.126,229.938 275.959,220.771 288,210.5C 300.105,189.02 294.938,173.187 272.5,163C 255.983,157.91 240.316,159.91 225.5,169C 216.966,176.913 212.466,186.747 212,198.5C 211.5,206.493 211.334,214.493 211.5,222.5C 194.833,222.5 178.167,222.5 161.5,222.5C 159.38,197.82 163.88,174.486 175,152.5C 189.876,129.429 210.709,115.429 237.5,110.5 Z"/></g>
<g><path style="opacity:0.955" fill="#fefffe" d="M 250.5,349.5 C 272.613,348.78 283.113,359.446 282,381.5C 276.658,397.093 265.825,403.259 249.5,400C 240.763,397.596 234.929,392.096 232,383.5C 228.564,366.692 234.731,355.358 250.5,349.5 Z"/></g>
</svg>
