<?xml version="1.0" encoding="UTF-8"?>
<!DOCTYPE svg PUBLIC "-//W3C//DTD SVG 1.1//EN" "http://www.w3.org/Graphics/SVG/1.1/DTD/svg11.dtd">
<svg xmlns="http://www.w3.org/2000/svg" version="1.1" width="512px" height="512px" style="shape-rendering:geometricPrecision; text-rendering:geometricPrecision; image-rendering:optimizeQuality; fill-rule:evenodd; clip-rule:evenodd" xmlns:xlink="http://www.w3.org/1999/xlink">
<g><path style="opacity:0.992" fill="#fefffe" d="M 235.5,-0.5 C 246.167,-0.5 256.833,-0.5 267.5,-0.5C 308.774,5.92088 339.94,27.2542 361,63.5C 380.906,104.517 380.239,145.184 359,185.5C 327.592,233.446 283.425,252.946 226.5,244C 189.792,235.561 161.958,215.061 143,182.5C 127.559,152.148 124.226,120.482 133,87.5C 145.761,48.4045 171.261,21.2378 209.5,6C 218.187,3.36902 226.853,1.20235 235.5,-0.5 Z"/></g>
<g><path style="opacity:0.995" fill="#fefffe" d="M 393.5,511.5 C 301.167,511.5 208.833,511.5 116.5,511.5C 89.2904,507.796 68.1237,494.463 53,471.5C 46.7263,461.012 43.0596,449.679 42,437.5C 38.784,394.467 44.784,352.801 60,312.5C 70.9875,285.18 89.8209,265.347 116.5,253C 132.168,246.705 148.168,245.372 164.5,249C 178.167,257.333 191.833,265.667 205.5,274C 240.977,290.12 275.977,289.12 310.5,271C 321.998,263.417 333.665,256.083 345.5,249C 386.93,243.797 418.763,258.963 441,294.5C 457.003,324.84 466.003,357.173 468,391.5C 470.724,412.362 469.724,433.029 465,453.5C 452.75,487.197 428.917,506.531 393.5,511.5 Z"/></g>
</svg>
