<?xml version="1.0" encoding="UTF-8"?>
<!DOCTYPE svg PUBLIC "-//W3C//DTD SVG 1.1//EN" "http://www.w3.org/Graphics/SVG/1.1/DTD/svg11.dtd">
<svg xmlns="http://www.w3.org/2000/svg" version="1.1" width="512px" height="512px" style="shape-rendering:geometricPrecision; text-rendering:geometricPrecision; image-rendering:optimizeQuality; fill-rule:evenodd; clip-rule:evenodd" xmlns:xlink="http://www.w3.org/1999/xlink">
<g><path style="opacity:0.992" fill="#fefffe" d="M 251.5,66.5 C 260.398,66.6953 269.064,68.1953 277.5,71C 350.249,101.805 422.915,132.805 495.5,164C 510.164,175.151 513.997,189.318 507,206.5C 502.654,214.51 496.154,220.01 487.5,223C 417.418,252.472 347.418,282.138 277.5,312C 262.827,317.907 248.16,317.907 233.5,312C 160.751,281.195 88.0848,250.195 15.5,219C 0.835974,207.849 -2.99736,193.682 4,176.5C 6.78509,171.381 10.6184,167.214 15.5,164C 88.0848,132.805 160.751,101.805 233.5,71C 239.52,69.0356 245.52,67.5356 251.5,66.5 Z"/></g>
<g><path style="opacity:0.972" fill="#fefffe" d="M 468.5,252.5 C 469.331,264.66 469.831,276.993 470,289.5C 482.616,297.072 487.283,308.072 484,322.5C 481.757,327.239 478.923,331.572 475.5,335.5C 480.788,340.743 483.955,347.076 485,354.5C 485.667,364.5 485.667,374.5 485,384.5C 484.298,389.063 481.798,392.23 477.5,394C 464.5,394.667 451.5,394.667 438.5,394C 436.04,392.542 433.873,390.709 432,388.5C 431.333,375.833 431.333,363.167 432,350.5C 433.367,344.641 436.201,339.641 440.5,335.5C 430.706,324.792 428.873,312.792 435,299.5C 438.416,295.413 442.416,292.08 447,289.5C 447.168,280.149 447.668,270.816 448.5,261.5C 455.268,258.477 461.935,255.477 468.5,252.5 Z"/></g>
<g><path style="opacity:0.99" fill="#fefffe" d="M 95.5,275.5 C 142.03,295.263 188.697,314.763 235.5,334C 252.957,338.278 269.957,336.944 286.5,330C 329.126,311.736 371.792,293.569 414.5,275.5C 414.833,290.333 415.167,305.167 415.5,320C 415.629,336.542 415.129,353.042 414,369.5C 410.012,382.827 402.179,393.327 390.5,401C 300.5,449.667 210.5,449.667 120.5,401C 107.209,392.246 99.0426,380.079 96,364.5C 95.5,334.835 95.3334,305.169 95.5,275.5 Z"/></g>
</svg>
