<?xml version="1.0" encoding="UTF-8"?>
<svg id="Ebene_1" xmlns="http://www.w3.org/2000/svg" viewBox="0 0 720 370">
  <defs>
    <style>
      .cls-1 {
        fill: #386c82;
      }

      .cls-2 {
        fill: #6c347f;
      }
    </style>
  </defs>
  <circle class="cls-2" cx="503.84" cy="344.82" r="14.38"/>
  <circle class="cls-2" cx="503.84" cy="312.85" r="14.38"/>
  <circle class="cls-2" cx="503.84" cy="280.89" r="14.38"/>
  <circle class="cls-2" cx="503.84" cy="248.93" r="14.38"/>
  <circle class="cls-2" cx="503.84" cy="216.96" r="14.38"/>
  <circle class="cls-2" cx="503.84" cy="185" r="14.38"/>
  <circle class="cls-2" cx="503.84" cy="153.04" r="14.38"/>
  <circle class="cls-2" cx="503.84" cy="121.07" r="14.38"/>
  <circle class="cls-2" cx="503.84" cy="89.11" r="14.38"/>
  <circle class="cls-2" cx="503.84" cy="57.15" r="14.38"/>
  <circle class="cls-2" cx="503.84" cy="25.18" r="14.38"/>
  <circle class="cls-2" cx="535.8" cy="344.82" r="14.38"/>
  <circle class="cls-2" cx="535.8" cy="312.85" r="14.38"/>
  <circle class="cls-2" cx="535.8" cy="280.89" r="14.38"/>
  <circle class="cls-2" cx="535.8" cy="248.93" r="14.38"/>
  <circle class="cls-2" cx="535.8" cy="216.96" r="14.38"/>
  <circle class="cls-2" cx="535.8" cy="185" r="14.38"/>
  <circle class="cls-2" cx="535.8" cy="153.04" r="14.38"/>
  <circle class="cls-2" cx="567.76" cy="185" r="14.38"/>
  <circle class="cls-2" cx="567.76" cy="153.04" r="14.38"/>
  <circle class="cls-2" cx="599.73" cy="185" r="14.38"/>
  <circle class="cls-2" cx="599.73" cy="153.04" r="14.38"/>
  <circle class="cls-2" cx="631.69" cy="185" r="14.38"/>
  <circle class="cls-2" cx="631.69" cy="153.04" r="14.38"/>
  <circle class="cls-2" cx="535.8" cy="121.07" r="14.38"/>
  <circle class="cls-2" cx="535.8" cy="89.11" r="14.38"/>
  <circle class="cls-2" cx="535.8" cy="57.15" r="14.38"/>
  <circle class="cls-2" cx="535.8" cy="25.18" r="14.38"/>
  <circle class="cls-2" cx="663.65" cy="344.82" r="14.38"/>
  <circle class="cls-2" cx="663.65" cy="312.85" r="14.38"/>
  <circle class="cls-2" cx="663.65" cy="280.89" r="14.38"/>
  <circle class="cls-2" cx="663.65" cy="248.93" r="14.38"/>
  <circle class="cls-2" cx="663.65" cy="216.96" r="14.38"/>
  <circle class="cls-2" cx="663.65" cy="185" r="14.38"/>
  <circle class="cls-2" cx="663.65" cy="153.04" r="14.38"/>
  <circle class="cls-2" cx="663.65" cy="121.07" r="14.38"/>
  <circle class="cls-2" cx="663.65" cy="89.11" r="14.38"/>
  <circle class="cls-2" cx="663.65" cy="57.15" r="14.38"/>
  <circle class="cls-2" cx="663.65" cy="25.18" r="14.38"/>
  <circle class="cls-2" cx="695.62" cy="344.82" r="14.38"/>
  <circle class="cls-2" cx="695.62" cy="312.85" r="14.38"/>
  <circle class="cls-2" cx="695.62" cy="280.89" r="14.38"/>
  <circle class="cls-2" cx="695.62" cy="248.93" r="14.38"/>
  <circle class="cls-2" cx="695.62" cy="216.96" r="14.38"/>
  <circle class="cls-2" cx="695.62" cy="185" r="14.38"/>
  <circle class="cls-2" cx="695.62" cy="153.04" r="14.38"/>
  <circle class="cls-2" cx="695.62" cy="121.07" r="14.38"/>
  <circle class="cls-2" cx="695.62" cy="89.11" r="14.38"/>
  <circle class="cls-2" cx="695.62" cy="57.15" r="14.38"/>
  <circle class="cls-2" cx="695.62" cy="25.18" r="14.38"/>
  <circle class="cls-2" cx="248.13" cy="344.82" r="14.38"/>
  <circle class="cls-2" cx="248.13" cy="312.85" r="14.38"/>
  <circle class="cls-2" cx="248.13" cy="280.89" r="14.38"/>
  <circle class="cls-2" cx="248.13" cy="248.93" r="14.38"/>
  <circle class="cls-2" cx="248.13" cy="216.96" r="14.38"/>
  <circle class="cls-2" cx="248.13" cy="185" r="14.38"/>
  <circle class="cls-2" cx="248.13" cy="153.04" r="14.38"/>
  <circle class="cls-2" cx="248.13" cy="121.07" r="14.38"/>
  <circle class="cls-2" cx="248.13" cy="89.11" r="14.38"/>
  <circle class="cls-2" cx="248.13" cy="57.15" r="14.38"/>
  <circle class="cls-2" cx="248.13" cy="25.18" r="14.38"/>
  <circle class="cls-2" cx="280.09" cy="344.82" r="14.38"/>
  <circle class="cls-2" cx="280.09" cy="312.85" r="14.38"/>
  <circle class="cls-2" cx="280.09" cy="280.89" r="14.38"/>
  <circle class="cls-2" cx="280.09" cy="248.93" r="14.38"/>
  <circle class="cls-2" cx="280.09" cy="216.96" r="14.38"/>
  <circle class="cls-2" cx="280.09" cy="185" r="14.38"/>
  <circle class="cls-2" cx="280.09" cy="153.04" r="14.38"/>
  <circle class="cls-2" cx="280.09" cy="121.07" r="14.38"/>
  <circle class="cls-2" cx="280.09" cy="89.11" r="14.38"/>
  <circle class="cls-2" cx="280.09" cy="57.15" r="14.38"/>
  <circle class="cls-2" cx="280.09" cy="25.18" r="14.38"/>
  <circle class="cls-1" cx="88.31" cy="344.82" r="14.38"/>
  <circle class="cls-1" cx="88.31" cy="312.85" r="14.38"/>
  <circle class="cls-1" cx="88.31" cy="280.89" r="14.38"/>
  <circle class="cls-1" cx="88.31" cy="248.93" r="14.38"/>
  <circle class="cls-1" cx="88.31" cy="216.96" r="14.38"/>
  <circle class="cls-1" cx="88.31" cy="185" r="14.38"/>
  <circle class="cls-1" cx="88.31" cy="153.04" r="14.38"/>
  <circle class="cls-1" cx="88.31" cy="121.07" r="14.38"/>
  <circle class="cls-1" cx="88.31" cy="89.11" r="14.38"/>
  <circle class="cls-1" cx="88.31" cy="57.15" r="14.38"/>
  <circle class="cls-1" cx="88.31" cy="25.18" r="14.38"/>
  <circle class="cls-1" cx="120.27" cy="344.82" r="14.38"/>
  <circle class="cls-1" cx="120.27" cy="312.85" r="14.38"/>
  <circle class="cls-1" cx="120.27" cy="280.89" r="14.38"/>
  <circle class="cls-1" cx="120.27" cy="248.93" r="14.38"/>
  <circle class="cls-1" cx="120.27" cy="216.96" r="14.38"/>
  <circle class="cls-1" cx="120.27" cy="185" r="14.38"/>
  <circle class="cls-1" cx="120.27" cy="153.04" r="14.38"/>
  <circle class="cls-1" cx="120.27" cy="121.07" r="14.38"/>
  <circle class="cls-1" cx="120.27" cy="89.11" r="14.38"/>
  <circle class="cls-1" cx="120.27" cy="57.15" r="14.38"/>
  <circle class="cls-1" cx="120.27" cy="25.18" r="14.38"/>
  <circle class="cls-1" cx="152.24" cy="57.15" r="14.38"/>
  <circle class="cls-1" cx="152.24" cy="25.18" r="14.38"/>
  <circle class="cls-1" cx="184.2" cy="57.15" r="14.38"/>
  <circle class="cls-1" cx="184.2" cy="25.18" r="14.38"/>
  <circle class="cls-1" cx="24.38" cy="57.15" r="14.38"/>
  <circle class="cls-1" cx="24.38" cy="25.18" r="14.38"/>
  <circle class="cls-1" cx="56.35" cy="57.15" r="14.38"/>
  <circle class="cls-1" cx="56.35" cy="25.18" r="14.38"/>
  <circle class="cls-1" cx="24.38" cy="344.82" r="14.38"/>
  <circle class="cls-1" cx="24.38" cy="312.85" r="14.38"/>
  <circle class="cls-1" cx="56.35" cy="344.82" r="14.38"/>
  <circle class="cls-1" cx="56.35" cy="312.85" r="14.38"/>
  <circle class="cls-1" cx="152.24" cy="344.82" r="14.38"/>
  <circle class="cls-1" cx="152.24" cy="312.85" r="14.38"/>
  <circle class="cls-1" cx="184.2" cy="344.82" r="14.38"/>
  <circle class="cls-1" cx="184.2" cy="312.85" r="14.38"/>
  <circle class="cls-2" cx="312.05" cy="57.15" r="14.38"/>
  <circle class="cls-2" cx="312.05" cy="25.18" r="14.38"/>
  <circle class="cls-2" cx="344.02" cy="57.15" r="14.38"/>
  <circle class="cls-2" cx="344.02" cy="25.18" r="14.38"/>
  <circle class="cls-2" cx="312.05" cy="344.82" r="14.38"/>
  <circle class="cls-2" cx="312.05" cy="312.85" r="14.38"/>
  <circle class="cls-2" cx="344.02" cy="344.82" r="14.38"/>
  <circle class="cls-2" cx="344.02" cy="312.85" r="14.38"/>
  <circle class="cls-2" cx="407.95" cy="312.85" r="14.38"/>
  <circle class="cls-2" cx="407.95" cy="280.89" r="14.38"/>
  <circle class="cls-2" cx="407.95" cy="248.93" r="14.38"/>
  <circle class="cls-2" cx="407.95" cy="216.96" r="14.38"/>
  <circle class="cls-2" cx="407.95" cy="185" r="14.38"/>
  <circle class="cls-2" cx="407.95" cy="153.04" r="14.38"/>
  <circle class="cls-2" cx="407.95" cy="121.07" r="14.38"/>
  <circle class="cls-2" cx="407.95" cy="89.11" r="14.38"/>
  <circle class="cls-2" cx="407.95" cy="57.15" r="14.38"/>
  <circle class="cls-2" cx="375.98" cy="89.11" r="14.38"/>
  <circle class="cls-2" cx="375.98" cy="57.15" r="14.38"/>
  <circle class="cls-2" cx="375.98" cy="25.18" r="14.38"/>
  <circle class="cls-2" cx="375.98" cy="344.82" r="14.38"/>
  <circle class="cls-2" cx="375.98" cy="312.85" r="14.38"/>
  <circle class="cls-2" cx="375.98" cy="280.89" r="14.38"/>
  <circle class="cls-2" cx="439.91" cy="280.89" r="14.38"/>
  <circle class="cls-2" cx="439.91" cy="248.93" r="14.38"/>
  <circle class="cls-2" cx="439.91" cy="216.96" r="14.38"/>
  <circle class="cls-2" cx="439.91" cy="185" r="14.38"/>
  <circle class="cls-2" cx="439.91" cy="153.04" r="14.38"/>
  <circle class="cls-2" cx="439.91" cy="121.07" r="14.38"/>
  <circle class="cls-2" cx="439.91" cy="89.11" r="14.38"/>
</svg>