<?xml version="1.0" encoding="UTF-8"?>
<svg id="Ebene_1" xmlns="http://www.w3.org/2000/svg" viewBox="0 0 2090 370">
  <defs>
    <style>
      .cls-1 {
        fill: #fff;
      }
    </style>
  </defs>
  <g>
    <path class="cls-1" d="M765.91,170.8v70.76h-8.57v-70.76h8.57Z"/>
    <path class="cls-1" d="M790.1,209.64v31.93h-8.16v-53.07h7.88v8.29h.69c1.24-2.7,3.13-4.87,5.67-6.51,2.53-1.65,5.8-2.47,9.81-2.47,3.59,0,6.74.73,9.43,2.19,2.69,1.46,4.79,3.67,6.29,6.63s2.25,6.7,2.25,11.21v33.72h-8.15v-33.17c0-4.17-1.08-7.42-3.25-9.76-2.17-2.34-5.14-3.51-8.92-3.51-2.6,0-4.92.56-6.96,1.69-2.04,1.13-3.65,2.78-4.82,4.94-1.17,2.17-1.76,4.79-1.76,7.88Z"/>
    <path class="cls-1" d="M876.48,200.38l-7.33,2.07c-.46-1.22-1.13-2.41-2.02-3.58-.89-1.16-2.09-2.12-3.61-2.89-1.52-.76-3.47-1.14-5.84-1.14-3.25,0-5.95.74-8.1,2.23-2.15,1.49-3.23,3.37-3.23,5.65,0,2.03.74,3.63,2.21,4.8,1.47,1.17,3.78,2.15,6.91,2.94l7.88,1.93c4.75,1.15,8.28,2.91,10.61,5.27,2.33,2.36,3.49,5.4,3.49,9.1,0,3.04-.87,5.76-2.61,8.15-1.74,2.4-4.16,4.28-7.27,5.67-3.11,1.38-6.73,2.07-10.85,2.07-5.41,0-9.89-1.17-13.44-3.52-3.55-2.35-5.79-5.78-6.74-10.3l7.74-1.94c.74,2.86,2.14,5,4.2,6.43,2.06,1.43,4.76,2.14,8.1,2.14,3.8,0,6.82-.81,9.07-2.44s3.37-3.58,3.37-5.86c0-1.84-.65-3.39-1.94-4.65s-3.27-2.19-5.94-2.82l-8.84-2.07c-4.86-1.15-8.43-2.94-10.69-5.37-2.27-2.43-3.4-5.48-3.4-9.14,0-2.99.85-5.64,2.54-7.95,1.69-2.3,4.01-4.11,6.95-5.42,2.94-1.31,6.27-1.97,10-1.97,5.25,0,9.38,1.15,12.39,3.46,3.01,2.3,5.14,5.34,6.41,9.12Z"/>
    <path class="cls-1" d="M912.83,188.49v6.91h-27.5v-6.91h27.5ZM893.34,175.78h8.15v50.58c0,2.3.34,4.03,1.02,5.17s1.55,1.9,2.63,2.28c1.07.38,2.21.57,3.4.57.9,0,1.64-.05,2.21-.16.58-.1,1.04-.19,1.38-.26l1.66,7.33c-.55.21-1.32.42-2.31.64-.99.22-2.25.33-3.77.33-2.3,0-4.56-.5-6.75-1.49-2.2-.99-4.02-2.5-5.46-4.53-1.44-2.03-2.16-4.58-2.16-7.67v-52.8Z"/>
    <path class="cls-1" d="M929.27,179.65c-1.59,0-2.95-.54-4.09-1.62-1.14-1.08-1.71-2.38-1.71-3.9s.57-2.82,1.71-3.9c1.14-1.08,2.5-1.62,4.09-1.62s2.95.54,4.09,1.62c1.14,1.08,1.71,2.38,1.71,3.9s-.57,2.82-1.71,3.9c-1.14,1.08-2.5,1.62-4.09,1.62ZM925.13,241.57v-53.07h8.16v53.07h-8.16Z"/>
    <path class="cls-1" d="M971.29,188.49v6.91h-27.5v-6.91h27.5ZM951.8,175.78h8.15v50.58c0,2.3.34,4.03,1.02,5.17s1.55,1.9,2.63,2.28c1.07.38,2.21.57,3.4.57.9,0,1.64-.05,2.21-.16.58-.1,1.04-.19,1.38-.26l1.66,7.33c-.55.21-1.32.42-2.31.64-.99.22-2.25.33-3.77.33-2.3,0-4.56-.5-6.75-1.49-2.2-.99-4.02-2.5-5.46-4.53-1.44-2.03-2.16-4.58-2.16-7.67v-52.8Z"/>
    <path class="cls-1" d="M1017.04,219.87v-31.37h8.15v53.07h-8.15v-8.98h-.55c-1.24,2.7-3.18,4.98-5.8,6.86-2.63,1.88-5.94,2.82-9.95,2.82-3.32,0-6.27-.73-8.85-2.19s-4.61-3.67-6.08-6.63c-1.47-2.96-2.21-6.7-2.21-11.21v-33.72h8.16v33.17c0,3.87,1.09,6.96,3.26,9.26,2.18,2.3,4.96,3.46,8.34,3.46,2.03,0,4.09-.52,6.2-1.55s3.88-2.63,5.32-4.77c1.44-2.14,2.16-4.87,2.16-8.19Z"/>
    <path class="cls-1" d="M1063.2,188.49v6.91h-27.5v-6.91h27.5ZM1043.71,175.78h8.15v50.58c0,2.3.34,4.03,1.02,5.17s1.55,1.9,2.63,2.28c1.07.38,2.21.57,3.4.57.9,0,1.64-.05,2.21-.16.58-.1,1.04-.19,1.38-.26l1.66,7.33c-.55.21-1.32.42-2.31.64-.99.22-2.25.33-3.77.33-2.3,0-4.56-.5-6.75-1.49-2.2-.99-4.02-2.5-5.46-4.53-1.44-2.03-2.16-4.58-2.16-7.67v-52.8Z"/>
    <path class="cls-1" d="M1126.5,188.49v6.91h-28.61v-6.91h28.61ZM1106.46,241.57v-60.4c0-3.04.71-5.57,2.14-7.6,1.43-2.03,3.28-3.55,5.56-4.56,2.28-1.01,4.69-1.52,7.22-1.52,2,0,3.64.16,4.91.48,1.27.32,2.21.62,2.83.9l-2.35,7.05c-.42-.14-.99-.31-1.71-.52-.73-.21-1.68-.31-2.85-.31-2.69,0-4.64.68-5.82,2.04-1.19,1.36-1.78,3.35-1.78,5.98v58.46h-8.15Z"/>
    <path class="cls-1" d="M1171.42,219.87v-31.37h8.15v53.07h-8.15v-8.98h-.55c-1.24,2.7-3.18,4.98-5.8,6.86-2.63,1.88-5.94,2.82-9.95,2.82-3.32,0-6.27-.73-8.85-2.19s-4.61-3.67-6.08-6.63c-1.47-2.96-2.21-6.7-2.21-11.21v-33.72h8.16v33.17c0,3.87,1.09,6.96,3.26,9.26,2.18,2.3,4.96,3.46,8.34,3.46,2.03,0,4.09-.52,6.2-1.55s3.88-2.63,5.32-4.77c1.44-2.14,2.16-4.87,2.16-8.19ZM1148.89,179.65c-1.45,0-2.74-.56-3.85-1.68-1.12-1.12-1.68-2.4-1.68-3.85,0-1.59.56-2.91,1.68-3.96s2.4-1.57,3.85-1.57c1.59,0,2.91.52,3.96,1.57s1.57,2.37,1.57,3.96c0,1.45-.52,2.74-1.57,3.85-1.05,1.12-2.37,1.68-3.96,1.68ZM1168.79,179.65c-1.45,0-2.74-.56-3.85-1.68-1.12-1.12-1.68-2.4-1.68-3.85,0-1.59.56-2.91,1.68-3.96s2.4-1.57,3.85-1.57c1.59,0,2.91.52,3.96,1.57s1.57,2.37,1.57,3.96c0,1.45-.52,2.74-1.57,3.85-1.05,1.12-2.37,1.68-3.96,1.68Z"/>
    <path class="cls-1" d="M1194.5,241.57v-53.07h7.88v8.02h.55c.97-2.63,2.72-4.76,5.25-6.39,2.53-1.64,5.39-2.45,8.57-2.45.6,0,1.35.01,2.25.03.9.02,1.58.06,2.04.1v8.29c-.28-.07-.9-.18-1.88-.33-.98-.15-2.01-.22-3.09-.22-2.58,0-4.88.54-6.89,1.61s-3.61,2.55-4.77,4.42-1.74,4.01-1.74,6.41v33.58h-8.16Z"/>
    <path class="cls-1" d="M1281.02,241.57h-21.84v-70.76h22.8c6.86,0,12.74,1.41,17.62,4.23,4.88,2.82,8.63,6.86,11.23,12.13,2.6,5.26,3.9,11.56,3.9,18.88s-1.31,13.71-3.94,19.02c-2.63,5.31-6.45,9.39-11.47,12.23-5.02,2.85-11.13,4.27-18.31,4.27ZM1267.75,233.97h12.72c5.85,0,10.7-1.13,14.55-3.39,3.85-2.26,6.71-5.47,8.6-9.64,1.89-4.17,2.83-9.13,2.83-14.89s-.93-10.64-2.8-14.77c-1.87-4.13-4.65-7.31-8.36-9.54-3.71-2.22-8.33-3.33-13.86-3.33h-13.68v55.56Z"/>
    <path class="cls-1" d="M1332.15,179.65c-1.59,0-2.95-.54-4.09-1.62-1.14-1.08-1.71-2.38-1.71-3.9s.57-2.82,1.71-3.9c1.14-1.08,2.5-1.62,4.09-1.62s2.95.54,4.09,1.62c1.14,1.08,1.71,2.38,1.71,3.9s-.57,2.82-1.71,3.9c-1.14,1.08-2.5,1.62-4.09,1.62ZM1328.01,241.57v-53.07h8.16v53.07h-8.16Z"/>
    <path class="cls-1" d="M1372.51,262.58c-3.94,0-7.33-.5-10.16-1.5s-5.19-2.31-7.07-3.94c-1.88-1.62-3.37-3.36-4.47-5.2l6.5-4.56c.74.97,1.67,2.08,2.8,3.33,1.13,1.26,2.68,2.35,4.65,3.28,1.97.93,4.55,1.4,7.76,1.4,4.29,0,7.82-1.04,10.61-3.11,2.79-2.07,4.18-5.32,4.18-9.74v-10.78h-.69c-.6.97-1.45,2.16-2.54,3.58-1.09,1.42-2.66,2.67-4.7,3.77-2.04,1.09-4.79,1.64-8.24,1.64-4.28,0-8.13-1.01-11.52-3.04-3.4-2.03-6.08-4.98-8.05-8.85-1.97-3.87-2.95-8.57-2.95-14.1s.96-10.18,2.87-14.22c1.91-4.04,4.57-7.18,7.98-9.4,3.41-2.22,7.35-3.33,11.82-3.33,3.46,0,6.2.57,8.24,1.71,2.04,1.14,3.6,2.43,4.7,3.87,1.09,1.44,1.94,2.62,2.54,3.54h.83v-8.43h7.88v54.59c0,4.56-1.03,8.28-3.09,11.14s-4.83,4.98-8.29,6.32c-3.47,1.35-7.32,2.02-11.56,2.02ZM1372.23,233.41c3.27,0,6.04-.75,8.29-2.25,2.26-1.5,3.97-3.65,5.15-6.46,1.17-2.81,1.76-6.17,1.76-10.09s-.58-7.2-1.73-10.12c-1.15-2.92-2.86-5.22-5.11-6.88-2.26-1.66-5.04-2.49-8.36-2.49s-6.33.88-8.62,2.63c-2.29,1.75-4.01,4.1-5.15,7.05-1.14,2.95-1.71,6.22-1.71,9.81s.58,6.94,1.75,9.76c1.16,2.82,2.89,5.03,5.18,6.63s5.14,2.4,8.55,2.4Z"/>
    <path class="cls-1" d="M1414.53,179.65c-1.59,0-2.95-.54-4.09-1.62-1.14-1.08-1.71-2.38-1.71-3.9s.57-2.82,1.71-3.9c1.14-1.08,2.5-1.62,4.09-1.62s2.95.54,4.09,1.62c1.14,1.08,1.71,2.38,1.71,3.9s-.57,2.82-1.71,3.9c-1.14,1.08-2.5,1.62-4.09,1.62ZM1410.38,241.57v-53.07h8.16v53.07h-8.16Z"/>
    <path class="cls-1" d="M1456.54,188.49v6.91h-27.5v-6.91h27.5ZM1437.05,175.78h8.15v50.58c0,2.3.34,4.03,1.02,5.17s1.55,1.9,2.63,2.28c1.07.38,2.21.57,3.4.57.9,0,1.64-.05,2.21-.16.58-.1,1.04-.19,1.38-.26l1.66,7.33c-.55.21-1.32.42-2.31.64-.99.22-2.25.33-3.77.33-2.3,0-4.56-.5-6.75-1.49-2.2-.99-4.02-2.5-5.46-4.53-1.44-2.03-2.16-4.58-2.16-7.67v-52.8Z"/>
    <path class="cls-1" d="M1484.46,242.81c-3.36,0-6.42-.64-9.16-1.92s-4.92-3.13-6.53-5.56c-1.61-2.43-2.42-5.37-2.42-8.83,0-3.04.6-5.51,1.8-7.41,1.2-1.9,2.8-3.39,4.8-4.47,2-1.08,4.22-1.89,6.65-2.44,2.43-.54,4.88-.97,7.34-1.3,3.22-.41,5.84-.73,7.86-.95,2.02-.22,3.49-.59,4.42-1.12.93-.53,1.4-1.45,1.4-2.76v-.28c0-3.41-.93-6.06-2.78-7.95-1.85-1.89-4.66-2.83-8.41-2.83s-6.95.85-9.16,2.56c-2.21,1.71-3.77,3.52-4.67,5.46l-7.74-2.76c1.38-3.22,3.23-5.74,5.55-7.55,2.31-1.81,4.85-3.08,7.6-3.8,2.75-.73,5.46-1.09,8.14-1.09,1.7,0,3.67.2,5.89.6,2.22.4,4.38,1.23,6.46,2.47,2.08,1.24,3.82,3.12,5.2,5.63,1.38,2.51,2.07,5.87,2.07,10.09v34.97h-8.15v-7.19h-.42c-.55,1.15-1.47,2.38-2.76,3.7-1.29,1.31-3.01,2.43-5.15,3.35-2.14.92-4.76,1.38-7.84,1.38ZM1485.71,235.49c3.22,0,5.95-.63,8.17-1.9,2.22-1.27,3.9-2.9,5.04-4.91,1.14-2,1.71-4.11,1.71-6.32v-7.46c-.35.41-1.1.79-2.26,1.12-1.16.33-2.5.62-4.01.86-1.51.24-2.97.45-4.39.62-1.42.17-2.56.32-3.44.43-2.12.28-4.09.72-5.93,1.33-1.83.61-3.31,1.52-4.42,2.73-1.12,1.21-1.68,2.85-1.68,4.92,0,2.83,1.05,4.97,3.16,6.41,2.11,1.44,4.79,2.16,8.03,2.16Z"/>
    <path class="cls-1" d="M1531.87,170.8v70.76h-8.16v-70.76h8.16Z"/>
    <path class="cls-1" d="M1575.26,241.57v-70.76h8.57v31.51h37.73v-31.51h8.57v70.76h-8.57v-31.65h-37.73v31.65h-8.57Z"/>
    <path class="cls-1" d="M1679.61,219.87v-31.37h8.15v53.07h-8.15v-8.98h-.55c-1.24,2.7-3.18,4.98-5.8,6.86-2.63,1.88-5.94,2.82-9.95,2.82-3.32,0-6.27-.73-8.85-2.19s-4.61-3.67-6.08-6.63c-1.47-2.96-2.21-6.7-2.21-11.21v-33.72h8.16v33.17c0,3.87,1.09,6.96,3.26,9.26,2.18,2.3,4.96,3.46,8.34,3.46,2.03,0,4.09-.52,6.2-1.55s3.88-2.63,5.32-4.77c1.44-2.14,2.16-4.87,2.16-8.19Z"/>
    <path class="cls-1" d="M1702.69,241.57v-53.07h7.88v8.29h.69c1.11-2.83,2.89-5.04,5.36-6.62,2.46-1.58,5.42-2.37,8.88-2.37s6.42.79,8.76,2.37c2.34,1.58,4.16,3.78,5.48,6.62h.55c1.36-2.74,3.4-4.92,6.12-6.55,2.72-1.62,5.98-2.44,9.78-2.44,4.75,0,8.63,1.48,11.64,4.44s4.53,7.56,4.53,13.8v35.52h-8.15v-35.52c0-3.92-1.07-6.71-3.21-8.4-2.14-1.68-4.67-2.52-7.57-2.52-3.73,0-6.62,1.12-8.67,3.37s-3.08,5.08-3.08,8.52v34.55h-8.29v-36.35c0-3.02-.98-5.45-2.94-7.31-1.96-1.85-4.48-2.78-7.57-2.78-2.12,0-4.09.56-5.93,1.69-1.83,1.13-3.31,2.69-4.42,4.68-1.12,1.99-1.68,4.29-1.68,6.89v33.17h-8.16Z"/>
    <path class="cls-1" d="M1802.9,242.81c-3.36,0-6.42-.64-9.16-1.92s-4.92-3.13-6.53-5.56c-1.61-2.43-2.42-5.37-2.42-8.83,0-3.04.6-5.51,1.8-7.41,1.2-1.9,2.8-3.39,4.8-4.47,2-1.08,4.22-1.89,6.65-2.44,2.43-.54,4.88-.97,7.34-1.3,3.22-.41,5.84-.73,7.86-.95,2.02-.22,3.49-.59,4.42-1.12.93-.53,1.4-1.45,1.4-2.76v-.28c0-3.41-.93-6.06-2.78-7.95-1.85-1.89-4.66-2.83-8.41-2.83s-6.95.85-9.16,2.56c-2.21,1.71-3.77,3.52-4.67,5.46l-7.74-2.76c1.38-3.22,3.23-5.74,5.55-7.55,2.31-1.81,4.85-3.08,7.6-3.8,2.75-.73,5.46-1.09,8.14-1.09,1.7,0,3.67.2,5.89.6,2.22.4,4.38,1.23,6.46,2.47,2.08,1.24,3.82,3.12,5.2,5.63,1.38,2.51,2.07,5.87,2.07,10.09v34.97h-8.15v-7.19h-.42c-.55,1.15-1.47,2.38-2.76,3.7-1.29,1.31-3.01,2.43-5.15,3.35-2.14.92-4.76,1.38-7.84,1.38ZM1804.14,235.49c3.22,0,5.95-.63,8.17-1.9,2.22-1.27,3.9-2.9,5.04-4.91,1.14-2,1.71-4.11,1.71-6.32v-7.46c-.35.41-1.1.79-2.26,1.12-1.16.33-2.5.62-4.01.86-1.51.24-2.97.45-4.39.62-1.42.17-2.56.32-3.44.43-2.12.28-4.09.72-5.93,1.33-1.83.61-3.31,1.52-4.42,2.73-1.12,1.21-1.68,2.85-1.68,4.92,0,2.83,1.05,4.97,3.16,6.41,2.11,1.44,4.79,2.16,8.03,2.16Z"/>
    <path class="cls-1" d="M1850.3,209.64v31.93h-8.16v-53.07h7.88v8.29h.69c1.24-2.7,3.13-4.87,5.67-6.51,2.53-1.65,5.8-2.47,9.81-2.47,3.59,0,6.74.73,9.43,2.19,2.69,1.46,4.79,3.67,6.29,6.63s2.25,6.7,2.25,11.21v33.72h-8.15v-33.17c0-4.17-1.08-7.42-3.25-9.76-2.17-2.34-5.14-3.51-8.92-3.51-2.6,0-4.92.56-6.96,1.69-2.04,1.13-3.65,2.78-4.82,4.94-1.17,2.17-1.76,4.79-1.76,7.88Z"/>
    <path class="cls-1" d="M1903.24,179.65c-1.59,0-2.95-.54-4.09-1.62-1.14-1.08-1.71-2.38-1.71-3.9s.57-2.82,1.71-3.9c1.14-1.08,2.5-1.62,4.09-1.62s2.95.54,4.09,1.62c1.14,1.08,1.71,2.38,1.71,3.9s-.57,2.82-1.71,3.9c-1.14,1.08-2.5,1.62-4.09,1.62ZM1899.09,241.57v-53.07h8.16v53.07h-8.16Z"/>
    <path class="cls-1" d="M1945.25,188.49v6.91h-27.5v-6.91h27.5ZM1925.76,175.78h8.15v50.58c0,2.3.34,4.03,1.02,5.17s1.55,1.9,2.63,2.28c1.07.38,2.21.57,3.4.57.9,0,1.64-.05,2.21-.16.58-.1,1.04-.19,1.38-.26l1.66,7.33c-.55.21-1.32.42-2.31.64-.99.22-2.25.33-3.77.33-2.3,0-4.56-.5-6.75-1.49-2.2-.99-4.02-2.5-5.46-4.53-1.44-2.03-2.16-4.58-2.16-7.67v-52.8Z"/>
    <path class="cls-1" d="M1961.7,179.65c-1.59,0-2.95-.54-4.09-1.62-1.14-1.08-1.71-2.38-1.71-3.9s.57-2.82,1.71-3.9c1.14-1.08,2.5-1.62,4.09-1.62s2.95.54,4.09,1.62c1.14,1.08,1.71,2.38,1.71,3.9s-.57,2.82-1.71,3.9c-1.14,1.08-2.5,1.62-4.09,1.62ZM1957.55,241.57v-53.07h8.16v53.07h-8.16Z"/>
    <path class="cls-1" d="M2002.88,242.67c-5.11,0-9.52-1.13-13.22-3.4-3.7-2.27-6.54-5.45-8.53-9.54-1.99-4.09-2.99-8.85-2.99-14.29s1-10.23,2.99-14.39c1.99-4.16,4.78-7.41,8.36-9.74,3.58-2.34,7.77-3.51,12.56-3.51,2.76,0,5.49.46,8.19,1.38,2.7.92,5.15,2.41,7.36,4.47,2.21,2.06,3.97,4.79,5.29,8.17,1.31,3.39,1.97,7.56,1.97,12.51v3.46h-40.91v-7.05h32.62c0-2.99-.59-5.67-1.78-8.02-1.19-2.35-2.87-4.2-5.04-5.56-2.18-1.36-4.74-2.04-7.69-2.04-3.25,0-6.05.8-8.41,2.4-2.36,1.6-4.18,3.68-5.44,6.24-1.27,2.56-1.9,5.3-1.9,8.22v4.7c0,4.01.7,7.4,2.09,10.18,1.39,2.78,3.33,4.88,5.82,6.32,2.49,1.44,5.38,2.16,8.67,2.16,2.14,0,4.08-.31,5.82-.92,1.74-.61,3.24-1.53,4.51-2.76,1.27-1.23,2.25-2.77,2.94-4.61l7.88,2.21c-.83,2.67-2.22,5.02-4.18,7.03s-4.38,3.58-7.26,4.7c-2.88,1.12-6.12,1.68-9.71,1.68Z"/>
    <path class="cls-1" d="M2074.89,200.38l-7.33,2.07c-.46-1.22-1.13-2.41-2.02-3.58-.89-1.16-2.09-2.12-3.61-2.89-1.52-.76-3.47-1.14-5.84-1.14-3.25,0-5.95.74-8.1,2.23-2.15,1.49-3.23,3.37-3.23,5.65,0,2.03.74,3.63,2.21,4.8,1.47,1.17,3.78,2.15,6.91,2.94l7.88,1.93c4.75,1.15,8.28,2.91,10.61,5.27,2.33,2.36,3.49,5.4,3.49,9.1,0,3.04-.87,5.76-2.61,8.15-1.74,2.4-4.16,4.28-7.27,5.67-3.11,1.38-6.73,2.07-10.85,2.07-5.41,0-9.89-1.17-13.44-3.52-3.55-2.35-5.79-5.78-6.74-10.3l7.74-1.94c.74,2.86,2.14,5,4.2,6.43,2.06,1.43,4.76,2.14,8.1,2.14,3.8,0,6.82-.81,9.07-2.44s3.37-3.58,3.37-5.86c0-1.84-.65-3.39-1.94-4.65s-3.27-2.19-5.94-2.82l-8.84-2.07c-4.86-1.15-8.43-2.94-10.69-5.37-2.27-2.43-3.4-5.48-3.4-9.14,0-2.99.85-5.64,2.54-7.95,1.69-2.3,4.01-4.11,6.95-5.42,2.94-1.31,6.27-1.97,10-1.97,5.25,0,9.38,1.15,12.39,3.46,3.01,2.3,5.14,5.34,6.41,9.12Z"/>
    <path class="cls-1" d="M803.78,287.56h8.57v46.85c0,4.84-1.13,9.15-3.4,12.94-2.27,3.79-5.47,6.77-9.59,8.95s-8.96,3.27-14.51,3.27-10.39-1.09-14.51-3.27-7.32-5.16-9.59-8.95c-2.27-3.79-3.4-8.1-3.4-12.94v-46.85h8.57v46.16c0,3.46.76,6.52,2.28,9.21,1.52,2.68,3.69,4.79,6.51,6.32,2.82,1.53,6.2,2.3,10.14,2.3s7.33-.77,10.16-2.3c2.83-1.53,5-3.64,6.51-6.32,1.51-2.68,2.26-5.75,2.26-9.21v-46.16Z"/>
    <path class="cls-1" d="M836.54,326.4v31.93h-8.16v-53.07h7.88v8.29h.69c1.24-2.7,3.13-4.87,5.67-6.51,2.53-1.65,5.8-2.47,9.81-2.47,3.59,0,6.74.73,9.43,2.19,2.69,1.46,4.79,3.67,6.29,6.63s2.25,6.7,2.25,11.21v33.72h-8.15v-33.17c0-4.17-1.08-7.42-3.25-9.76-2.17-2.34-5.14-3.51-8.92-3.51-2.6,0-4.92.56-6.96,1.69-2.04,1.13-3.65,2.78-4.82,4.94-1.17,2.17-1.76,4.79-1.76,7.88Z"/>
    <path class="cls-1" d="M889.47,296.41c-1.59,0-2.95-.54-4.09-1.62-1.14-1.08-1.71-2.38-1.71-3.9s.57-2.82,1.71-3.9c1.14-1.08,2.5-1.62,4.09-1.62s2.95.54,4.09,1.62c1.14,1.08,1.71,2.38,1.71,3.9s-.57,2.82-1.71,3.9c-1.14,1.08-2.5,1.62-4.09,1.62ZM885.32,358.33v-53.07h8.16v53.07h-8.16Z"/>
    <path class="cls-1" d="M951.8,305.25l-19.63,53.07h-8.29l-19.63-53.07h8.84l14.65,42.29h.55l14.65-42.29h8.85Z"/>
    <path class="cls-1" d="M984.83,359.43c-5.11,0-9.52-1.13-13.22-3.4-3.7-2.27-6.54-5.45-8.53-9.54-1.99-4.09-2.99-8.85-2.99-14.29s1-10.23,2.99-14.39c1.99-4.16,4.78-7.41,8.36-9.74,3.58-2.34,7.77-3.51,12.56-3.51,2.76,0,5.49.46,8.19,1.38,2.7.92,5.15,2.41,7.36,4.47,2.21,2.06,3.97,4.79,5.29,8.17,1.31,3.39,1.97,7.56,1.97,12.51v3.46h-40.91v-7.05h32.62c0-2.99-.59-5.67-1.78-8.02-1.19-2.35-2.87-4.2-5.04-5.56-2.18-1.36-4.74-2.04-7.69-2.04-3.25,0-6.05.8-8.41,2.4-2.36,1.6-4.18,3.68-5.44,6.24-1.27,2.56-1.9,5.3-1.9,8.22v4.7c0,4.01.7,7.4,2.09,10.18,1.39,2.78,3.33,4.88,5.82,6.32,2.49,1.44,5.38,2.16,8.67,2.16,2.14,0,4.08-.31,5.82-.92,1.74-.61,3.24-1.53,4.51-2.76,1.27-1.23,2.25-2.77,2.94-4.61l7.88,2.21c-.83,2.67-2.22,5.02-4.18,7.03s-4.38,3.58-7.26,4.7c-2.88,1.12-6.12,1.68-9.71,1.68Z"/>
    <path class="cls-1" d="M1019.25,358.33v-53.07h7.88v8.02h.55c.97-2.63,2.72-4.76,5.25-6.39,2.53-1.64,5.39-2.45,8.57-2.45.6,0,1.35.01,2.25.03.9.02,1.58.06,2.04.1v8.29c-.28-.07-.9-.18-1.88-.33-.98-.15-2.01-.22-3.09-.22-2.58,0-4.88.54-6.89,1.61s-3.61,2.55-4.77,4.42-1.74,4.01-1.74,6.41v33.58h-8.16Z"/>
    <path class="cls-1" d="M1093.05,317.14l-7.33,2.07c-.46-1.22-1.13-2.41-2.02-3.58-.89-1.16-2.09-2.12-3.61-2.89-1.52-.76-3.47-1.14-5.84-1.14-3.25,0-5.95.74-8.1,2.23-2.15,1.49-3.23,3.37-3.23,5.65,0,2.03.74,3.63,2.21,4.8,1.47,1.17,3.78,2.15,6.91,2.94l7.88,1.93c4.75,1.15,8.28,2.91,10.61,5.27,2.33,2.36,3.49,5.4,3.49,9.1,0,3.04-.87,5.76-2.61,8.15-1.74,2.4-4.16,4.28-7.27,5.67-3.11,1.38-6.73,2.07-10.85,2.07-5.41,0-9.89-1.17-13.44-3.52-3.55-2.35-5.79-5.78-6.74-10.3l7.74-1.94c.74,2.86,2.14,5,4.2,6.43,2.06,1.43,4.76,2.14,8.1,2.14,3.8,0,6.82-.81,9.07-2.44s3.37-3.58,3.37-5.86c0-1.84-.65-3.39-1.94-4.65s-3.27-2.19-5.94-2.82l-8.84-2.07c-4.86-1.15-8.43-2.94-10.69-5.37-2.27-2.43-3.4-5.48-3.4-9.14,0-2.99.85-5.64,2.54-7.95,1.69-2.3,4.01-4.11,6.95-5.42,2.94-1.31,6.27-1.97,10-1.97,5.25,0,9.38,1.15,12.39,3.46,3.01,2.3,5.14,5.34,6.41,9.12Z"/>
    <path class="cls-1" d="M1110.47,296.41c-1.59,0-2.95-.54-4.09-1.62-1.14-1.08-1.71-2.38-1.71-3.9s.57-2.82,1.71-3.9c1.14-1.08,2.5-1.62,4.09-1.62s2.95.54,4.09,1.62c1.14,1.08,1.71,2.38,1.71,3.9s-.57,2.82-1.71,3.9c-1.14,1.08-2.5,1.62-4.09,1.62ZM1106.32,358.33v-53.07h8.16v53.07h-8.16Z"/>
    <path class="cls-1" d="M1152.48,305.25v6.91h-27.5v-6.91h27.5ZM1132.99,292.54h8.15v50.58c0,2.3.34,4.03,1.02,5.17s1.55,1.9,2.63,2.28c1.07.38,2.21.57,3.4.57.9,0,1.64-.05,2.21-.16.58-.1,1.04-.19,1.38-.26l1.66,7.33c-.55.21-1.32.42-2.31.64-.99.22-2.25.33-3.77.33-2.3,0-4.56-.5-6.75-1.49-2.2-.99-4.02-2.5-5.46-4.53-1.44-2.03-2.16-4.58-2.16-7.67v-52.8Z"/>
    <path class="cls-1" d="M1180.4,359.57c-3.36,0-6.42-.64-9.16-1.92s-4.92-3.13-6.53-5.56c-1.61-2.43-2.42-5.37-2.42-8.83,0-3.04.6-5.51,1.8-7.41,1.2-1.9,2.8-3.39,4.8-4.47,2-1.08,4.22-1.89,6.65-2.44,2.43-.54,4.88-.97,7.34-1.3,3.22-.41,5.84-.73,7.86-.95,2.02-.22,3.49-.59,4.42-1.12.93-.53,1.4-1.45,1.4-2.76v-.28c0-3.41-.93-6.06-2.78-7.95-1.85-1.89-4.66-2.83-8.41-2.83s-6.95.85-9.16,2.56c-2.21,1.71-3.77,3.52-4.67,5.46l-7.74-2.76c1.38-3.22,3.23-5.74,5.55-7.55,2.31-1.81,4.85-3.08,7.6-3.8,2.75-.73,5.46-1.09,8.14-1.09,1.7,0,3.67.2,5.89.6,2.22.4,4.38,1.23,6.46,2.47,2.08,1.24,3.82,3.12,5.2,5.63,1.38,2.51,2.07,5.87,2.07,10.09v34.97h-8.15v-7.19h-.42c-.55,1.15-1.47,2.38-2.76,3.7-1.29,1.31-3.01,2.43-5.15,3.35-2.14.92-4.76,1.38-7.84,1.38ZM1175.7,296.41c-1.45,0-2.74-.56-3.85-1.68-1.12-1.12-1.68-2.4-1.68-3.85,0-1.59.56-2.91,1.68-3.96s2.4-1.57,3.85-1.57c1.59,0,2.91.52,3.96,1.57s1.57,2.37,1.57,3.96c0,1.45-.52,2.74-1.57,3.85-1.05,1.12-2.37,1.68-3.96,1.68ZM1181.64,352.25c3.22,0,5.95-.63,8.17-1.9,2.22-1.27,3.9-2.9,5.04-4.91,1.14-2,1.71-4.11,1.71-6.32v-7.46c-.35.41-1.1.79-2.26,1.12-1.16.33-2.5.62-4.01.86-1.51.24-2.97.45-4.39.62-1.42.17-2.56.32-3.44.43-2.12.28-4.09.72-5.93,1.33-1.83.61-3.31,1.52-4.42,2.73-1.12,1.21-1.68,2.85-1.68,4.92,0,2.83,1.05,4.97,3.16,6.41,2.11,1.44,4.79,2.16,8.03,2.16ZM1195.6,296.41c-1.45,0-2.74-.56-3.85-1.68-1.12-1.12-1.68-2.4-1.68-3.85,0-1.59.56-2.91,1.68-3.96s2.4-1.57,3.85-1.57c1.59,0,2.91.52,3.96,1.57s1.57,2.37,1.57,3.96c0,1.45-.52,2.74-1.57,3.85-1.05,1.12-2.37,1.68-3.96,1.68Z"/>
    <path class="cls-1" d="M1242.73,305.25v6.91h-27.5v-6.91h27.5ZM1223.24,292.54h8.15v50.58c0,2.3.34,4.03,1.02,5.17s1.55,1.9,2.63,2.28c1.07.38,2.21.57,3.4.57.9,0,1.64-.05,2.21-.16.58-.1,1.04-.19,1.38-.26l1.66,7.33c-.55.21-1.32.42-2.31.64-.99.22-2.25.33-3.77.33-2.3,0-4.56-.5-6.75-1.49-2.2-.99-4.02-2.5-5.46-4.53-1.44-2.03-2.16-4.58-2.16-7.67v-52.8Z"/>
    <path class="cls-1" d="M1280.88,358.33v-6.22l30.13-38.7v-.55h-29.16v-7.6h39.67v6.5l-29.3,38.42v.55h30.27v7.6h-41.6Z"/>
    <path class="cls-1" d="M1368.5,336.63v-31.37h8.15v53.07h-8.15v-8.98h-.55c-1.24,2.7-3.18,4.98-5.8,6.86-2.63,1.88-5.94,2.82-9.95,2.82-3.32,0-6.27-.73-8.85-2.19s-4.61-3.67-6.08-6.63c-1.47-2.96-2.21-6.7-2.21-11.21v-33.72h8.16v33.17c0,3.87,1.09,6.96,3.26,9.26,2.18,2.3,4.96,3.46,8.34,3.46,2.03,0,4.09-.52,6.2-1.55s3.88-2.63,5.32-4.77c1.44-2.14,2.16-4.87,2.16-8.19Z"/>
    <path class="cls-1" d="M1420.05,358.33v-70.76h8.57v35.11h.83l31.79-35.11h11.2l-29.72,31.93,29.72,38.84h-10.37l-24.6-32.89-8.85,9.95v22.94h-8.57Z"/>
    <path class="cls-1" d="M1503.95,359.43c-4.79,0-8.99-1.14-12.59-3.42-3.61-2.28-6.42-5.47-8.43-9.57-2.02-4.1-3.02-8.89-3.02-14.37s1.01-10.35,3.02-14.48c2.02-4.12,4.83-7.33,8.43-9.61,3.6-2.28,7.8-3.42,12.59-3.42s8.99,1.14,12.59,3.42c3.6,2.28,6.41,5.48,8.43,9.61,2.01,4.12,3.02,8.95,3.02,14.48s-1.01,10.27-3.02,14.37c-2.02,4.1-4.83,7.29-8.43,9.57-3.61,2.28-7.8,3.42-12.59,3.42ZM1503.95,352.11c3.64,0,6.63-.93,8.98-2.8,2.35-1.87,4.09-4.32,5.22-7.36,1.13-3.04,1.69-6.33,1.69-9.88s-.56-6.85-1.69-9.92c-1.13-3.06-2.87-5.54-5.22-7.43-2.35-1.89-5.34-2.83-8.98-2.83s-6.63.94-8.98,2.83c-2.35,1.89-4.09,4.37-5.22,7.43-1.13,3.06-1.69,6.37-1.69,9.92s.56,6.84,1.69,9.88c1.13,3.04,2.87,5.49,5.22,7.36,2.35,1.87,5.34,2.8,8.98,2.8ZM1494,296.41c-1.45,0-2.74-.56-3.85-1.68-1.12-1.12-1.68-2.4-1.68-3.85,0-1.59.56-2.91,1.68-3.96,1.12-1.05,2.4-1.57,3.85-1.57,1.59,0,2.91.52,3.96,1.57,1.05,1.05,1.57,2.37,1.57,3.96,0,1.45-.52,2.74-1.57,3.85-1.05,1.12-2.37,1.68-3.96,1.68ZM1513.9,296.41c-1.45,0-2.74-.56-3.85-1.68-1.12-1.12-1.68-2.4-1.68-3.85,0-1.59.56-2.91,1.68-3.96,1.12-1.05,2.4-1.57,3.85-1.57,1.59,0,2.91.52,3.96,1.57,1.05,1.05,1.57,2.37,1.57,3.96,0,1.45-.52,2.74-1.57,3.85-1.05,1.12-2.37,1.68-3.96,1.68Z"/>
    <path class="cls-1" d="M1548.59,287.56v70.76h-8.16v-70.76h8.16Z"/>
    <path class="cls-1" d="M1571.67,326.4v31.93h-8.16v-53.07h7.88v8.29h.69c1.24-2.7,3.13-4.87,5.67-6.51,2.53-1.65,5.8-2.47,9.81-2.47,3.59,0,6.74.73,9.43,2.19,2.69,1.46,4.79,3.67,6.29,6.63s2.25,6.7,2.25,11.21v33.72h-8.15v-33.17c0-4.17-1.08-7.42-3.25-9.76-2.17-2.34-5.14-3.51-8.92-3.51-2.6,0-4.92.56-6.96,1.69-2.04,1.13-3.65,2.78-4.82,4.94-1.17,2.17-1.76,4.79-1.76,7.88Z"/>
  </g>
  <g>
    <circle class="cls-1" cx="501.36" cy="344.82" r="14.38"/>
    <circle class="cls-1" cx="501.36" cy="312.85" r="14.38"/>
    <circle class="cls-1" cx="501.36" cy="280.89" r="14.38"/>
    <circle class="cls-1" cx="501.36" cy="248.93" r="14.38"/>
    <circle class="cls-1" cx="501.36" cy="216.96" r="14.38"/>
    <circle class="cls-1" cx="501.36" cy="185" r="14.38"/>
    <circle class="cls-1" cx="501.36" cy="153.04" r="14.38"/>
    <circle class="cls-1" cx="501.36" cy="121.07" r="14.38"/>
    <circle class="cls-1" cx="501.36" cy="89.11" r="14.38"/>
    <circle class="cls-1" cx="501.36" cy="57.15" r="14.38"/>
    <circle class="cls-1" cx="501.36" cy="25.18" r="14.38"/>
    <circle class="cls-1" cx="533.32" cy="344.82" r="14.38"/>
    <circle class="cls-1" cx="533.32" cy="312.85" r="14.38"/>
    <circle class="cls-1" cx="533.32" cy="280.89" r="14.38"/>
    <circle class="cls-1" cx="533.32" cy="248.93" r="14.38"/>
    <circle class="cls-1" cx="533.32" cy="216.96" r="14.38"/>
    <circle class="cls-1" cx="533.32" cy="185" r="14.38"/>
    <circle class="cls-1" cx="533.32" cy="153.04" r="14.38"/>
    <circle class="cls-1" cx="565.29" cy="185" r="14.38"/>
    <circle class="cls-1" cx="565.29" cy="153.04" r="14.38"/>
    <circle class="cls-1" cx="597.25" cy="185" r="14.38"/>
    <circle class="cls-1" cx="597.25" cy="153.04" r="14.38"/>
    <circle class="cls-1" cx="629.21" cy="185" r="14.38"/>
    <circle class="cls-1" cx="629.21" cy="153.04" r="14.38"/>
    <circle class="cls-1" cx="533.32" cy="121.07" r="14.38"/>
    <circle class="cls-1" cx="533.32" cy="89.11" r="14.38"/>
    <circle class="cls-1" cx="533.32" cy="57.15" r="14.38"/>
    <circle class="cls-1" cx="533.32" cy="25.18" r="14.38"/>
    <circle class="cls-1" cx="661.18" cy="344.82" r="14.38"/>
    <circle class="cls-1" cx="661.18" cy="312.85" r="14.38"/>
    <circle class="cls-1" cx="661.18" cy="280.89" r="14.38"/>
    <circle class="cls-1" cx="661.18" cy="248.93" r="14.38"/>
    <circle class="cls-1" cx="661.18" cy="216.96" r="14.38"/>
    <circle class="cls-1" cx="661.18" cy="185" r="14.38"/>
    <circle class="cls-1" cx="661.18" cy="153.04" r="14.38"/>
    <circle class="cls-1" cx="661.18" cy="121.07" r="14.38"/>
    <circle class="cls-1" cx="661.18" cy="89.11" r="14.38"/>
    <circle class="cls-1" cx="661.18" cy="57.15" r="14.38"/>
    <circle class="cls-1" cx="661.18" cy="25.18" r="14.38"/>
    <circle class="cls-1" cx="693.14" cy="344.82" r="14.38"/>
    <circle class="cls-1" cx="693.14" cy="312.85" r="14.38"/>
    <circle class="cls-1" cx="693.14" cy="280.89" r="14.38"/>
    <circle class="cls-1" cx="693.14" cy="248.93" r="14.38"/>
    <circle class="cls-1" cx="693.14" cy="216.96" r="14.38"/>
    <circle class="cls-1" cx="693.14" cy="185" r="14.38"/>
    <circle class="cls-1" cx="693.14" cy="153.04" r="14.38"/>
    <circle class="cls-1" cx="693.14" cy="121.07" r="14.38"/>
    <circle class="cls-1" cx="693.14" cy="89.11" r="14.38"/>
    <circle class="cls-1" cx="693.14" cy="57.15" r="14.38"/>
    <circle class="cls-1" cx="693.14" cy="25.18" r="14.38"/>
    <circle class="cls-1" cx="245.65" cy="344.82" r="14.38"/>
    <circle class="cls-1" cx="245.65" cy="312.85" r="14.38"/>
    <circle class="cls-1" cx="245.65" cy="280.89" r="14.38"/>
    <circle class="cls-1" cx="245.65" cy="248.93" r="14.38"/>
    <circle class="cls-1" cx="245.65" cy="216.96" r="14.38"/>
    <circle class="cls-1" cx="245.65" cy="185" r="14.38"/>
    <circle class="cls-1" cx="245.65" cy="153.04" r="14.38"/>
    <circle class="cls-1" cx="245.65" cy="121.07" r="14.38"/>
    <circle class="cls-1" cx="245.65" cy="89.11" r="14.38"/>
    <circle class="cls-1" cx="245.65" cy="57.15" r="14.38"/>
    <circle class="cls-1" cx="245.65" cy="25.18" r="14.38"/>
    <circle class="cls-1" cx="277.62" cy="344.82" r="14.38"/>
    <circle class="cls-1" cx="277.62" cy="312.85" r="14.38"/>
    <circle class="cls-1" cx="277.62" cy="280.89" r="14.38"/>
    <circle class="cls-1" cx="277.62" cy="248.93" r="14.38"/>
    <circle class="cls-1" cx="277.62" cy="216.96" r="14.38"/>
    <circle class="cls-1" cx="277.62" cy="185" r="14.38"/>
    <circle class="cls-1" cx="277.62" cy="153.04" r="14.38"/>
    <circle class="cls-1" cx="277.62" cy="121.07" r="14.38"/>
    <circle class="cls-1" cx="277.62" cy="89.11" r="14.38"/>
    <circle class="cls-1" cx="277.62" cy="57.15" r="14.38"/>
    <circle class="cls-1" cx="277.62" cy="25.18" r="14.38"/>
    <circle class="cls-1" cx="85.83" cy="344.82" r="14.38"/>
    <circle class="cls-1" cx="85.83" cy="312.85" r="14.38"/>
    <circle class="cls-1" cx="85.83" cy="280.89" r="14.38"/>
    <circle class="cls-1" cx="85.83" cy="248.93" r="14.38"/>
    <circle class="cls-1" cx="85.83" cy="216.96" r="14.38"/>
    <circle class="cls-1" cx="85.83" cy="185" r="14.38"/>
    <circle class="cls-1" cx="85.83" cy="153.04" r="14.38"/>
    <circle class="cls-1" cx="85.83" cy="121.07" r="14.38"/>
    <circle class="cls-1" cx="85.83" cy="89.11" r="14.38"/>
    <circle class="cls-1" cx="85.83" cy="57.15" r="14.38"/>
    <circle class="cls-1" cx="85.83" cy="25.18" r="14.38"/>
    <circle class="cls-1" cx="117.8" cy="344.82" r="14.38"/>
    <circle class="cls-1" cx="117.8" cy="312.85" r="14.38"/>
    <circle class="cls-1" cx="117.8" cy="280.89" r="14.38"/>
    <circle class="cls-1" cx="117.8" cy="248.93" r="14.38"/>
    <circle class="cls-1" cx="117.8" cy="216.96" r="14.38"/>
    <circle class="cls-1" cx="117.8" cy="185" r="14.38"/>
    <circle class="cls-1" cx="117.8" cy="153.04" r="14.38"/>
    <circle class="cls-1" cx="117.8" cy="121.07" r="14.38"/>
    <circle class="cls-1" cx="117.8" cy="89.11" r="14.38"/>
    <circle class="cls-1" cx="117.8" cy="57.15" r="14.38"/>
    <circle class="cls-1" cx="117.8" cy="25.18" r="14.38"/>
    <circle class="cls-1" cx="149.76" cy="57.15" r="14.38"/>
    <circle class="cls-1" cx="149.76" cy="25.18" r="14.38"/>
    <circle class="cls-1" cx="181.72" cy="57.15" r="14.38"/>
    <circle class="cls-1" cx="181.72" cy="25.18" r="14.38"/>
    <circle class="cls-1" cx="21.91" cy="57.15" r="14.38"/>
    <circle class="cls-1" cx="21.91" cy="25.18" r="14.38"/>
    <circle class="cls-1" cx="53.87" cy="57.15" r="14.38"/>
    <circle class="cls-1" cx="53.87" cy="25.18" r="14.38"/>
    <circle class="cls-1" cx="21.91" cy="344.82" r="14.38"/>
    <circle class="cls-1" cx="21.91" cy="312.85" r="14.38"/>
    <circle class="cls-1" cx="53.87" cy="344.82" r="14.38"/>
    <circle class="cls-1" cx="53.87" cy="312.85" r="14.38"/>
    <circle class="cls-1" cx="149.76" cy="344.82" r="14.38"/>
    <circle class="cls-1" cx="149.76" cy="312.85" r="14.38"/>
    <circle class="cls-1" cx="181.72" cy="344.82" r="14.38"/>
    <circle class="cls-1" cx="181.72" cy="312.85" r="14.38"/>
    <circle class="cls-1" cx="309.58" cy="57.15" r="14.38"/>
    <circle class="cls-1" cx="309.58" cy="25.18" r="14.38"/>
    <circle class="cls-1" cx="341.54" cy="57.15" r="14.38"/>
    <circle class="cls-1" cx="341.54" cy="25.18" r="14.38"/>
    <circle class="cls-1" cx="309.58" cy="344.82" r="14.38"/>
    <circle class="cls-1" cx="309.58" cy="312.85" r="14.38"/>
    <circle class="cls-1" cx="341.54" cy="344.82" r="14.38"/>
    <circle class="cls-1" cx="341.54" cy="312.85" r="14.38"/>
    <circle class="cls-1" cx="405.47" cy="312.85" r="14.38"/>
    <circle class="cls-1" cx="405.47" cy="280.89" r="14.38"/>
    <circle class="cls-1" cx="405.47" cy="248.93" r="14.38"/>
    <circle class="cls-1" cx="405.47" cy="216.96" r="14.38"/>
    <circle class="cls-1" cx="405.47" cy="185" r="14.38"/>
    <circle class="cls-1" cx="405.47" cy="153.04" r="14.38"/>
    <circle class="cls-1" cx="405.47" cy="121.07" r="14.38"/>
    <circle class="cls-1" cx="405.47" cy="89.11" r="14.38"/>
    <circle class="cls-1" cx="405.47" cy="57.15" r="14.38"/>
    <circle class="cls-1" cx="373.51" cy="89.11" r="14.38"/>
    <circle class="cls-1" cx="373.51" cy="57.15" r="14.38"/>
    <circle class="cls-1" cx="373.51" cy="25.18" r="14.38"/>
    <circle class="cls-1" cx="373.51" cy="344.82" r="14.38"/>
    <circle class="cls-1" cx="373.51" cy="312.85" r="14.38"/>
    <circle class="cls-1" cx="373.51" cy="280.89" r="14.38"/>
    <circle class="cls-1" cx="437.43" cy="280.89" r="14.38"/>
    <circle class="cls-1" cx="437.43" cy="248.93" r="14.38"/>
    <circle class="cls-1" cx="437.43" cy="216.96" r="14.38"/>
    <circle class="cls-1" cx="437.43" cy="185" r="14.38"/>
    <circle class="cls-1" cx="437.43" cy="153.04" r="14.38"/>
    <circle class="cls-1" cx="437.43" cy="121.07" r="14.38"/>
    <circle class="cls-1" cx="437.43" cy="89.11" r="14.38"/>
  </g>
</svg>